<svg xmlns="http://www.w3.org/2000/svg" version="1.1" xmlns:xlink="http://www.w3.org/1999/xlink" xmlns:svgjs="http://svgjs.com/svgjs" width="660" height="880" preserveAspectRatio="none" viewBox="0 0 660 880"><g mask="url(&quot;#SvgjsMask1370&quot;)" fill="none"><rect width="660" height="880" x="0" y="0" fill="#0e2a47"></rect><path d="M0 48.75C7.89 19.01 14.83 8.55 43.78 0C97.33 -15.82 104.39 0 165 0C221.04 0 239.34 -27.89 277.08 0C321.84 33.09 300.74 121.96 330 121.96C360.6 121.96 348.44 35.74 396.79 0C430.94 -25.24 445.89 0 495 0C577.5 0 615.58 -38.08 660 0C698.08 32.64 661.09 70.77 660 141.43C659.82 153.27 657.46 153.67 657.46 165C657.46 166.7 659.97 165.73 660 167.5C661.24 248.23 660 248.75 660 330C660 412.5 660 412.5 660 495C660 577.5 660 577.5 660 660C660 742.5 660 742.5 660 825C660 907.5 682.21 929.71 660 990C651.82 1012.21 628.94 995.03 599.21 990C546.44 981.08 548.11 970.25 495 962.11C413.5 949.62 400.85 937.71 330 948.75C311.36 951.65 334.49 985.38 316.02 990C251.99 1006.01 240.51 990 165 990C93.14 990 87.72 1001.07 21.29 990C5.22 987.32 2.15 979.15 0 962.5C-8.5 896.65 0 893.75 0 825C0 742.5 0 742.5 0 660C0 577.5 0 577.5 0 495C0 412.5 0 412.5 0 330C0 247.5 0 247.5 0 165C0 106.88 -14 101.51 0 48.75" stroke="rgba(51, 121, 194, 0.58)" stroke-width="2"></path><path d="M495 364.38C461.62 364.38 420.36 441.45 420.36 495C420.36 524.37 458.81 530.22 495 530.22C523.63 530.22 550 521.16 550 495C550 438.24 526.44 364.38 495 364.38" stroke="rgba(51, 121, 194, 0.58)" stroke-width="2"></path><path d="M330 630.54C321.89 630.54 310.36 644.56 310.36 660C310.36 679.92 322.08 701.25 330 701.25C337.4 701.25 341 680.36 341 660C341 645 337.21 630.54 330 630.54" stroke="rgba(51, 121, 194, 0.58)" stroke-width="2"></path><path d="M165 789.89C145.6 789.89 132 808.71 132 825C132 839.16 146.61 850.78 165 850.78C196.11 850.78 231 839.81 231 825C231 809.37 195.1 789.89 165 789.89" stroke="rgba(51, 121, 194, 0.58)" stroke-width="2"></path><path d="M0 142.5C57.25 68.67 58.83 59.7 127.96 0C141.33 -11.55 146.48 0 165 0C182.13 0 190.25 -12.98 199.25 0C247.47 69.52 288.7 91.78 279.44 165C271.57 227.23 226.35 223.47 165 270.9C119.63 305.97 111.59 295.43 66 330C29.09 357.98 19.33 396 0 396C-13.67 396 0 363 0 330C0 247.5 0 247.5 0 165C0 153.75 -6.73 151.17 0 142.5" stroke="rgba(51, 121, 194, 0.58)" stroke-width="2"></path><path d="M384.05 165C384.05 88.12 441.65 0 495 0C546.63 0 538.31 87.37 594 165C620.81 202.37 644.13 190.33 660 230C677.13 272.83 660 280 660 330C660 412.5 660 412.5 660 495C660 531.99 668.87 568.97 660 568.97C650.05 568.97 639.71 532.68 622.37 495C584.71 413.2 594.37 406.96 550 330C530.68 296.49 522.81 301.72 495 274.07C439.84 219.22 384.05 225.16 384.05 165" stroke="rgba(51, 121, 194, 0.58)" stroke-width="2"></path><path d="M110 495C119.06 459.76 131.72 440 165 440C229.93 440 295.97 446.16 306.43 495C319.54 556.16 265.2 582.29 212.14 660C194.49 685.85 189.51 702.13 165 702.13C137.66 702.13 116.67 691.01 108.43 660C89.17 587.45 90.78 569.76 110 495" stroke="rgba(51, 121, 194, 0.58)" stroke-width="2"></path><path d="M396 660C423.8 605.84 443.43 576.57 495 576.57C553.79 576.57 559.01 614.62 616.72 660C641.51 679.49 652.47 677.6 660 706.32C674.11 760.1 660 765.66 660 825C660 882.33 693.37 923.68 660 939.66C610.87 963.19 572.44 934.37 495 904.01C426.19 877.04 390.89 882.65 367.5 825C341.39 760.64 360.05 730.05 396 660" stroke="rgba(51, 121, 194, 0.58)" stroke-width="2"></path><path d="M0 759.87C13.78 759.87 49.5 793.86 49.5 825C49.5 852.21 14.38 876.56 0 876.56C-10.37 876.56 0 850.78 0 825C0 792.43 -10.97 759.87 0 759.87" stroke="rgba(51, 121, 194, 0.58)" stroke-width="2"></path><path d="M87.82 990C87.82 968.24 125.95 915.23 165 915.23C205.09 915.23 246.1 968.46 246.1 990C246.1 1005.84 205.55 990 165 990C126.41 990 87.82 1005.63 87.82 990" stroke="rgba(51, 121, 194, 0.58)" stroke-width="2"></path><path d="M84.73 165C84.73 125.76 130.38 72.19 165 72.19C194.47 72.19 212.9 122.8 212.9 165C212.9 191.37 191.65 209.33 165 209.33C127.56 209.33 84.73 194.33 84.73 165" stroke="rgba(51, 121, 194, 0.58)" stroke-width="2"></path><path d="M455.17 165C455.17 137.4 475.85 105.77 495 105.77C513.53 105.77 530.54 137.14 530.54 165C530.54 186.33 513.33 204.15 495 204.15C475.64 204.15 455.17 186.59 455.17 165" stroke="rgba(51, 121, 194, 0.58)" stroke-width="2"></path><path d="M618.75 330C618.75 306.96 647.67 292.5 660 292.5C668.29 292.5 660 311.25 660 330C660 375.84 669.84 421.67 660 421.67C649.21 421.67 618.75 371.55 618.75 330" stroke="rgba(51, 121, 194, 0.58)" stroke-width="2"></path><path d="M451 660C455.36 633.91 472.08 622.92 495 622.92C521.13 622.92 525.37 637.6 549.1 660C607.87 715.48 616.85 714.49 660 778.68C672.3 796.99 660 801.84 660 825C660 847.38 677.46 867.54 660 869.75C594.96 878 575.26 863.99 495 845.92C475.88 841.62 465.51 843 461.25 825C443.51 750.04 438.48 734.95 451 660" stroke="rgba(51, 121, 194, 0.58)" stroke-width="2"></path><path d="M154.35 990C154.35 987 159.61 979.69 165 979.69C170.53 979.69 176.19 987.03 176.19 990C176.19 992.18 170.6 990 165 990C159.68 990 154.35 992.16 154.35 990" stroke="rgba(51, 121, 194, 0.58)" stroke-width="2"></path></g><defs><mask id="SvgjsMask1370"><rect width="660" height="880" fill="#ffffff"></rect></mask></defs></svg>